mtllib materials.mtl
v -0.1364874 -0.1352143 -0.2106009
v 0.1161412 0.3020706 0.01894546
v 0.09648299 0.3194195 0.02336442
v -0.1371392 -0.2683084 -0.195273
v -0.1430709 -0.2612765 -0.1902926
v -0.1384584 -0.2408018 -0.09248054
v 0.138843 0.3219311 0.2204565
v -0.1435009 -0.1346059 -0.2019148
v 0.1279712 0.3240876 0.2242358
v 0.2530736 0.4372624 0.3332412
v 0.03151576 0.06756139 0.2447811
v 0.05232938 0.05208337 0.2431251
v -0.1291374 -0.2469294 -0.09148836
v 0.1532326 0.2611407 0.3407768
v 0.2680384 0.4151776 0.3305602
v 0.1964756 0.4368769 0.1994882
v 0.1870361 0.4501116 0.2033532
v 0.2021225 0.4290366 0.1974192
v -0.1388248 -0.3031662 -0.2240212
v 0.05304554 0.1291925 0.09151495
v -0.1526276 -0.2610202 -0.2127256
v -0.1662693 -0.310316 -0.1973575
v -0.171766 -0.2977374 -0.2141134
v 0.04479608 0.09391212 0.1161568
v 0.03892928 0.1308601 0.06991673
v -0.1830105 -0.3350502 -0.2367244
v 0.05847295 0.1728889 0.1190349
v -0.1719717 -0.3367164 -0.2492107
v -0.1742503 -0.3546921 -0.2468127
v -0.179922 -0.3487272 -0.2286307
vn 0.1434086 0.3937672 -0.9079545
vn -0.6853392 -0.7056214 0.1800239
vn 0.8762071 -0.4791768 -0.05148484
vn -0.901911 0.4113142 0.1318231
vn -0.7785553 -0.06803729 -0.623877
vn 0.6488224 -0.7596619 0.04408361
vn -0.9283577 0.357277 0.1024945
vn -0.08584733 0.7387535 -0.6684861
vn 0.9333856 -0.3138632 -0.1740154
vn -0.3746566 -0.5811042 0.7224614
vn -0.5526406 -0.8068373 0.2088113
vn 0.8271459 -0.559622 0.05150602
vn -0.836908 0.5423106 -0.07405487
vn -0.181629 -0.3428491 0.9216645
vn 0.8691899 -0.0607722 -0.4907297
vn -0.8630583 0.04324447 0.5032499
vn -0.6879688 -0.06862491 -0.7224885
vn -0.6094657 0.5867157 -0.5332132
vn -0.4345234 -0.5448557 0.7171622
vn 0.5763983 -0.8170203 0.01558805
vn 0.08584683 -0.7387533 0.6684863
vn -0.6488224 0.7596619 -0.0440836
vn 0.7641356 0.5572272 -0.3249534
vn -0.8894867 0.4383017 0.1292483
vn 0.4068629 0.6296064 -0.6618599
vn 0.7293863 0.6095614 -0.3105326
vn 0.8802205 0.09747658 -0.464446
vn -0.9206344 0.02699152 0.3894917
vn -0.4215208 -0.3852786 0.8209023
vn 0.9283893 -0.1520989 -0.3390565
vn 0.5220358 0.5558478 -0.646925
vn -0.7822698 0.4397465 0.4412223
vn 0.1138167 0.0468769 0.9923953
vn -0.1080023 -0.03895127 -0.9933873
vn -0.09042097 -0.1801742 0.97947
vn -0.772568 0.3337502 0.5401384
vn 0.7552256 -0.2520401 -0.6050704
vn -0.8638187 0.4939329 0.09923486
vn -0.772568 0.3337502 0.5401384
vn 0.7424601 -0.3668683 -0.5605005
vn 0.8636479 -0.4834863 0.1426648
vn 0.4215208 0.3852786 -0.8209023
vn 0.477257 0.369933 -0.7971044
vn -0.8995832 0.152212 0.4093672
vn 0.6227719 -0.6223858 0.4741215
vn -0.8853341 0.463055 -0.0419975
vn -0.1574848 0.5460665 -0.8228062
vn 0.9815952 -0.1729407 0.08100955
vn 0.8365023 -0.01380324 -0.5477898
vn -0.8958996 0.1397808 0.4216934
vn 0.9223408 -0.3416742 -0.1804061
vn -0.8839276 0.4653116 -0.04644594
vn 0.8233639 0.225677 -0.5207127
vn 0.3237114 0.3424067 -0.8820253
vn -0.8342316 0.4470326 -0.3228307
vn 0.1574848 -0.5460665 0.8228062
vn -0.7487555 0.006491241 -0.6628145
vn -0.9368644 0.05137507 0.3458983
vn 0.6265572 -0.6137674 0.4803288
vn -0.929359 -0.3194121 -0.1851158
vn 0.7045444 -0.1808531 -0.6862284
vn 0.05648131 -0.4361011 0.8981235
vn -0.6332619 0.4613421 -0.6214039
vn -0.05648131 0.4361011 -0.8981235
vn 0.6554364 -0.6329139 0.412096
vn -0.9148099 0.03169248 0.4026393
vt -0.1626221 0.02863546
vt -0.2008066 0.06887535
vt -0.2031269 0.06757685
vt 0.08879795 -0.1492146
vt 0.08889516 -0.1502562
vt 0.0975673 -0.1552433
vt 0.1496976 0.04012261
vt 0.2081343 0.07605518
vt 0.188163 0.08009414
vt -0.1430846 0.05483115
vt -0.1796054 0.0973876
vt -0.1995101 0.09321304
vt -0.1611193 -0.06012516
vt -0.1616808 -0.06109204
vt -0.1497966 -0.06728677
vt 0.184061 0.04034882
vt 0.2042671 0.03594414
vt 0.2200229 0.04840085
vt -0.1474982 0.04194664
vt -0.2075289 0.08965191
vt -0.2007425 0.06302001
vt -0.2422012 0.006064442
vt -0.2417038 0.007124617
vt -0.2569978 0.01964653
vt 0.1969344 0.1064319
vt 0.1392724 0.05496461
vt 0.1917555 0.07847948
vt 0.1748182 0.02346085
vt 0.2152278 0.05075506
vt 0.2134392 0.0526408
vt 0.1265011 -0.1298597
vt 0.1268874 -0.1288086
vt 0.1167771 -0.1255365
vt 0.1538455 0.01198293
vt 0.1643263 0.01022919
vt 0.2083228 0.03041235
vt -0.2114271 0.02818829
vt -0.1667573 0.008647282
vt -0.1569407 0.01057381
vt 0.1780691 0.0725852
vt 0.1802388 0.07115428
vt 0.1958259 0.0904435
vt 0.05774852 0.1382974
vt 0.06306474 0.1259997
vt 0.09237712 0.1975161
vt -0.08361279 0.2017516
vt -0.05681672 0.1299083
vt -0.05157373 0.1414979
vt -0.1556453 -0.05746603
vt -0.1445498 -0.06368661
vt -0.1435787 -0.0632975
vt -0.2264744 0.01375758
vt -0.1812239 -0.01936654
vt -0.1804869 -0.01852576
vt 0.1708158 0.03629871
vt 0.1715085 0.03541879
vt 0.2096552 0.06578448
vt 0.1762798 0.0317864
vt 0.1963724 0.02840239
vt 0.211774 0.04014485
vt 0.2417038 0.007124654
vt 0.2422012 0.006064479
vt 0.2569978 0.01964657
vt -0.2042671 0.03594414
vt -0.184061 0.04034882
vt -0.2200229 0.04840085
vt -0.2120353 -0.1229832
vt -0.2251526 -0.115523
vt -0.2257281 -0.1181416
vt -0.1984428 0.09115733
vt -0.1785182 0.09523617
vt -0.2004188 0.1050916
vt -0.2264532 0.02607145
vt -0.2245462 0.02792422
vt -0.2463069 0.0395841
vt -0.1983902 -0.138884
vt -0.2126953 -0.136339
vt -0.198998 -0.1414725
vt 0.09067576 0.2300403
vt 0.07594766 0.2267535
vt 0.06235602 0.2070688
vt -0.1192983 0.1766864
vt -0.1373873 0.1923391
vt -0.1518115 0.1940352
vt 0.2029363 0.1347513
vt 0.2003365 0.1354067
vt 0.1940944 0.1170729
vt 0.174387 0.1678862
vt 0.1598917 0.1668863
vt 0.1403275 0.1538133
vt -0.2190155 0.05482524
vt -0.2369058 0.07010914
vt -0.2392841 0.06892026
vt -0.1228657 0.1477703
vt -0.1374236 0.149197
vt -0.1245314 0.1337955
vt 0.1543813 0.04325603
vt 0.1340799 0.02335585
vt 0.1363932 0.02217103
vt -0.1349155 0.02482754
vt -0.1559138 0.04379373
vt -0.1372277 0.0236407
vt 0.1838753 0.0991727
vt 0.1812349 0.09963876
vt 0.1582926 0.06337541
vt -0.09682266 0.1314888
vt -0.09158771 0.1584686
vt -0.1028982 0.1750664
vt 0.06264089 0.1740938
vt 0.07165725 0.147273
vt 0.07244021 0.1916263
vt -0.2105772 0.07472693
vt -0.1944973 0.05584662
vt -0.2159523 0.09426016
vt -0.09158771 0.1584686
vt -0.1028982 0.1750664
vt -0.09682266 0.1314888
vt 0.09125398 0.1258647
vt 0.09772556 0.1682852
vt 0.08578656 0.1530356
vt 0.2182115 0.01994816
vt 0.2371217 0.03658038
vt 0.2451835 0.05516652
vt -0.1940944 0.1170729
vt -0.2003365 0.1354067
vt -0.2029363 0.1347513
vt -0.1326434 0.06807266
vt -0.1703155 0.110663
vt -0.137196 0.06853931
vt -0.09258258 0.1008636
vt -0.09067427 0.1018885
vt -0.1240079 0.1464142
vt 0.1675337 -0.02487434
vt 0.1692781 -0.02835424
vt 0.2184296 0.0004774411
vt -0.155293 0.0182111
vt -0.1983573 0.04731404
vt -0.153549 0.01445317
vt -0.1645632 -0.0126126
vt -0.1662078 -0.01568225
vt -0.1621628 -0.01766645
vt 0.2159028 0.0289785
vt 0.2160233 0.0245984
vt 0.2206049 0.03118142
vt 0.05037857 0.1856961
vt 0.04798371 0.1847214
vt 0.03434322 0.1345672
vt -0.08692039 0.104917
vt -0.1188666 0.1581552
vt -0.1192931 0.1501462
vt 0.1355376 0.04966143
vt 0.1778198 0.0853632
vt 0.1763055 0.08947498
vt -0.1986899 0.04659386
vt -0.2050283 0.04892509
vt -0.1538168 0.01382163
vt -0.01915459 0.2138322
vt -0.02006274 0.20714
vt -0.01804693 0.2087592
vt -0.1352121 0.04985867
vt -0.1397726 0.05023963
vt -0.1328933 0.04504079
vt -0.1704081 -0.01278058
vt -0.1681564 -0.01625813
vt -0.1641449 -0.01830939
vt 0.1662078 -0.01568225
vt 0.1645632 -0.0126126
vt 0.1621628 -0.01766645
vt -0.1455919 -0.0619229
vt -0.1470156 -0.06077672
vt -0.1479553 -0.06216325
vt -0.1079767 0.1017004
vt -0.1097644 0.1004771
vt -0.106437 0.09656213
vt 0.1694902 -0.02844311
vt 0.1677502 -0.02496102
vt 0.1647019 -0.03030596
vt -0.1355307 -0.09648377
vt -0.1378648 -0.09692557
vt -0.1367293 -0.09807959
vt 0.01075919 0.09934945
vt 0.01177995 0.09783329
vt 0.01230528 0.1044679
vt 0.1559575 0.001433996
vt 0.1515175 -0.003523797
vt 0.1538811 -0.003761387
vt -0.1657272 -0.03415808
vt -0.1646289 -0.03289353
vt -0.1723653 -0.0290855
vt -0.1538811 -0.003761387
vt -0.1515175 -0.003523797
vt -0.1559575 0.001433996
vt 0.1659921 -0.02221037
vt 0.1611647 -0.02679177
vt 0.1629962 -0.02758482
vt -0.08850378 0.1094755
vt -0.08745426 0.1107082
vt -0.08942515 0.1147598
o group557217501
g mesh557217501
usemtl mat21
f 3/3/1 2/2/1 1/1/1
f 6/6/2 5/5/2 4/4/2
f 2/9/3 7/8/3 1/7/3
f 9/12/4 3/11/4 8/10/4
f 4/15/5 8/14/5 1/13/5
f 10/18/6 9/17/6 2/16/6
f 11/21/7 9/20/7 5/19/7
f 10/24/8 7/23/8 9/22/8
f 12/27/9 4/26/9 7/25/9
f 12/30/10 11/29/10 13/28/10
f 4/33/11 13/32/11 6/31/11
f 12/36/12 13/35/12 4/34/12
f 5/39/13 6/38/13 11/37/13
f 14/42/14 11/41/14 12/40/14
f 7/45/15 4/44/15 1/43/15
f 8/48/16 5/47/16 9/46/16
f 4/51/17 5/50/17 8/49/17
f 1/54/18 8/53/18 3/52/18
f 11/57/19 6/56/19 13/55/19
f 15/60/20 7/59/20 2/58/20
f 10/63/21 9/62/21 7/61/21
f 10/66/22 2/65/22 9/64/22
f 10/69/23 15/68/23 16/67/23
f 17/72/24 3/71/24 9/70/24
f 17/75/25 2/74/25 3/73/25
f 17/78/26 10/77/26 18/76/26
f 2/81/27 16/80/27 15/79/27
f 10/84/28 16/83/28 2/82/28
f 7/87/29 15/86/29 10/85/29
f 2/90/30 18/89/30 10/88/30
f 17/93/31 18/92/31 2/91/31
f 9/96/32 10/95/32 17/94/32
f 11/99/33 12/98/33 7/97/33
f 11/102/34 9/101/34 12/100/34
f 11/105/35 15/104/35 10/103/35
f 10/108/36 9/107/36 11/106/36
f 10/111/37 12/110/37 9/109/37
f 10/114/38 11/113/38 14/112/38
f 11/117/39 10/116/39 9/115/39
f 7/120/40 15/119/40 11/118/40
f 10/123/41 14/122/41 12/121/41
f 10/126/42 15/125/42 7/124/42
f 21/129/43 20/128/43 19/127/43
f 24/132/44 23/131/44 22/130/44
f 20/135/45 22/134/45 19/133/45
f 23/138/46 25/137/46 21/136/46
f 26/141/47 23/140/47 19/139/47
f 27/144/48 24/143/48 20/142/48
f 21/147/49 25/146/49 20/145/49
f 24/150/50 27/149/50 23/148/50
f 20/153/51 24/152/51 22/151/51
f 23/156/52 27/155/52 25/154/52
f 20/159/53 25/158/53 27/157/53
f 28/162/54 21/161/54 19/160/54
f 26/165/55 23/164/55 21/163/55
f 26/168/56 19/167/56 23/166/56
f 26/171/57 28/170/57 29/169/57
f 30/174/58 22/173/58 23/172/58
f 30/177/59 19/176/59 22/175/59
f 30/180/60 26/179/60 29/178/60
f 19/183/61 29/182/61 28/181/61
f 26/186/62 29/185/62 19/184/62
f 21/189/63 28/188/63 26/187/63
f 19/192/64 29/191/64 26/190/64
f 30/195/65 29/194/65 19/193/65
f 23/198/66 26/197/66 30/196/66
